<?xml version="1.0" encoding="UTF-8"?><svg id="Layer_1" xmlns="http://www.w3.org/2000/svg" viewBox="0 0 878 50"><path d="M31.92,25.64c0,7.89-1.15,13.88-13.14,13.88s-13.77-5.76-13.77-13.88V6.45C5.01,2.13,3.17,1.73,0,1.73V.58H15.15V1.73c-3.11,0-5.01,.4-5.01,4.72V25.64c0,5.88,1.38,11.64,8.87,11.64,8.3,0,9.62-4.78,9.62-11.64V6.45c0-4.32-1.9-4.72-5.01-4.72V.58h13.31V1.73c-3.17,0-5.01,.4-5.01,4.72V25.64Z" fill="#182b49"/><path d="M63.78,37.97c-2.82,1.04-6.05,1.56-10.31,1.56-11.52,0-17.05-8.76-17.05-21.03,0-10.66,3.46-18.49,15.79-18.49,4.61,0,8.53,.92,11.06,1.61l.52,9.05h-1.44c-.75-3.23-3.05-8.41-10.2-8.41-9.28,0-10.02,9.85-10.02,15.79,0,7.43,1.61,18.9,14.23,18.9,3.86,0,5.93-.86,7.43-1.44v2.48Z" fill="#182b49"/><path d="M94.72,8.87c-.52-3.05-2.82-6.63-8.99-6.63-3.86,0-7.26,2.48-7.26,6.28,0,5.13,6.86,6.8,11.87,9.74,4.55,2.65,7.6,5.01,7.6,10.48,0,7.32-6.34,10.77-14.23,10.77-3.92,0-8.47-.86-9.91-1.09l-.4-8.12h1.44c.46,3.05,3.17,6.63,9.33,6.63,5.07,0,8.35-3.28,8.35-7.26,0-6.22-9.56-8.12-14.92-12.21-2.54-1.96-3.74-4.03-3.74-7.72,0-6.91,5.7-9.74,12.96-9.74,3.86,0,6.34,.46,8.93,.98l.4,7.89h-1.44Z" fill="#182b49"/><path d="M121.5,39c-.61,.15-1.9,.46-3.74,.46-2.97,0-3.84-1.54-3.84-3.74h-.1c-1.59,2.31-3.79,3.74-7.28,3.74s-6.15-2.46-6.15-5.79c0-7.43,9.64-7.43,13.53-7.79v-1.95c0-3.59-.05-7.38-4.36-7.38-3.18,0-3.59,1.33-3.59,2.97,0,2.1-1.54,2.66-2.41,2.66-1.38,0-2.46-.92-2.46-2.31,0-3.33,4.97-5.02,8.51-5.02,7.02,0,8.3,3.38,8.3,8.15v12.71c0,1.79,.61,2.41,2.2,2.41,.46,0,.92-.1,1.38-.21v1.08Zm-7.59-11.43c-2.41,.05-8.97,.51-8.97,5.28,0,2.66,1.74,4.46,3.49,4.46,3.33,0,5.48-3.23,5.48-6.71v-3.02Z" fill="#182b49"/><path d="M122.62,38.07c2.15,0,3.9-.46,3.9-3.79v-13.99c0-3.07-2.41-3.23-3.9-3.33v-.87l7.89-1.23v6.77h.1c.72-1.9,3.02-6.77,8.1-6.77,5.43,0,5.95,2.97,5.95,7.74v11.69c0,3.33,1.74,3.79,3.9,3.79v.87h-11.79v-.87c2.15,0,3.9-.46,3.9-3.79v-10.56c0-4.41-.05-6.41-3.43-6.41-3.02,0-6.71,5.79-6.71,10.66v6.3c0,3.33,1.74,3.79,3.9,3.79v.87h-11.79v-.87Z" fill="#182b49"/><path d="M154.42,37.79c3.11,0,5.01-.4,5.01-4.72V6.45c0-4.32-1.9-4.72-5.01-4.72V.58h13.48c9.56,0,19.7,2.07,19.7,19.24s-10.66,19.13-19.7,19.13h-13.48v-1.15Zm10.14-5.93c0,4.21,.46,4.84,3.34,4.84,9.91,0,14-5.3,14-16.88,0-10.6-3.05-17-14-17-2.88,0-3.34,.35-3.34,4.84V31.86Z" fill="#182b49"/><path d="M189.7,38.07c2.15,0,3.9-.46,3.9-3.79v-13.99c0-3.07-2.36-3.23-3.9-3.33v-.87l7.89-1.23v19.42c0,3.33,1.74,3.79,3.9,3.79v.87h-11.79v-.87Zm2.82-30.85c0-1.64,1.28-2.92,2.92-2.92s2.92,1.28,2.92,2.92-1.28,2.92-2.92,2.92-2.92-1.28-2.92-2.92Z" fill="#182b49"/><path d="M220.04,38.54c-1.23,.46-2.97,.92-6.1,.92-7.94,0-12.4-4.36-12.4-12.97,0-7.48,3.02-11.63,10.4-11.63,4.61,0,8.76,2.56,8.76,8.51v1.13h-14.91c0,4.3,2.1,13.07,10.66,13.07,1.18,0,2.56-.15,3.59-.67v1.64Zm-3.9-15.73c0-2.72-.92-6.25-4.87-6.25s-5.48,4.36-5.48,6.25h10.35Z" fill="#182b49"/><path d="M237.37,34.85c2.46,0,8.15,.1,8.15,5.79s-5.74,9.12-12.56,9.12c-5.02,0-10.25-1.9-10.25-6.51,0-3.18,2.36-4.56,4-5.38-.87-.51-2.2-1.49-2.2-3.64,0-1.9,1.64-3.84,2.2-4.46-1.18-.97-2.97-2.51-2.97-6.87,0-6.61,4.82-8.05,9.69-8.05,2.36,0,3.64,.41,5.28,1.28,.82-1.95,2.05-5.48,5.18-5.48,1.43,0,2.46,.92,2.46,2.46,0,1.38-.87,2.31-2.41,2.31-1.33,0-1.64-.72-2.31-.72-1.13,0-1.59,1.49-1.85,2.31,.62,.67,2.31,2.56,2.31,6.15,0,5.18-3.23,8.1-9.38,8.1-2.05,0-3.54-.26-4.66-.77-.31,.41-.92,1.18-.92,2.31,0,2.05,2.56,2.05,4.2,2.05h6.05Zm-8.87,3.64c-1.02,.77-2.46,1.64-2.46,3.95,0,3.02,2.72,5.64,7.17,5.64s8.97-2.41,8.97-6.1c0-2.61-2.15-3.49-4.71-3.49h-8.97Zm4.46-8.92c4.3,0,4.87-3.38,4.87-6.1,0-3.84-1.33-6.92-5.02-6.92-4.05,0-4.82,2.97-4.82,5.95,0,3.89,1.28,7.07,4.97,7.07Z" fill="#182b49"/><path d="M245.56,27.16c0-7.69,4.15-12.3,10.71-12.3s10.71,4.61,10.71,12.3-4.15,12.3-10.71,12.3-10.71-4.61-10.71-12.3Zm10.71,10.61c5.12,0,6.15-6.35,6.15-10.61s-1.02-10.61-6.15-10.61-6.15,6.36-6.15,10.61,1.02,10.61,6.15,10.61Z" fill="#182b49"/><path d="M274.65,37.79c3.11,0,5.01-.4,5.01-4.72V6.45c0-4.32-1.9-4.72-5.01-4.72V.58h15.15V1.73c-3.17,0-5.01,.4-5.01,4.72v11.58h16.3V6.45c0-4.32-1.9-4.72-5.01-4.72V.58h15.15V1.73c-3.17,0-5.01,.4-5.01,4.72v26.62c0,4.32,1.84,4.72,5.01,4.72v1.15h-15.15v-1.15c3.11,0,5.01-.4,5.01-4.72v-12.79h-16.3v12.79c0,4.32,1.84,4.72,5.01,4.72v1.15h-15.15v-1.15Z" fill="#182b49"/><path d="M328.98,38.54c-1.23,.46-2.97,.92-6.1,.92-7.95,0-12.4-4.36-12.4-12.97,0-7.48,3.02-11.63,10.4-11.63,4.61,0,8.76,2.56,8.76,8.51v1.13h-14.91c0,4.3,2.1,13.07,10.66,13.07,1.18,0,2.56-.15,3.59-.67v1.64Zm-3.9-15.73c0-2.72-.92-6.25-4.87-6.25s-5.48,4.36-5.48,6.25h10.35Z" fill="#182b49"/><path d="M352.2,39c-.62,.15-1.9,.46-3.74,.46-2.97,0-3.84-1.54-3.84-3.74h-.1c-1.59,2.31-3.79,3.74-7.28,3.74s-6.15-2.46-6.15-5.79c0-7.43,9.64-7.43,13.53-7.79v-1.95c0-3.59-.05-7.38-4.36-7.38-3.18,0-3.59,1.33-3.59,2.97,0,2.1-1.54,2.66-2.41,2.66-1.38,0-2.46-.92-2.46-2.31,0-3.33,4.97-5.02,8.51-5.02,7.02,0,8.3,3.38,8.3,8.15v12.71c0,1.79,.62,2.41,2.2,2.41,.46,0,.92-.1,1.38-.21v1.08Zm-7.58-11.43c-2.41,.05-8.97,.51-8.97,5.28,0,2.66,1.74,4.46,3.48,4.46,3.33,0,5.48-3.23,5.48-6.71v-3.02Z" fill="#182b49"/><path d="M351.68,38.07c2.15,0,3.9-.46,3.9-3.79V8.76c0-3.02-2.36-3.18-3.9-3.33v-.87l7.89-1.23v30.96c0,3.33,1.74,3.79,3.9,3.79v.87h-11.79v-.87Z" fill="#182b49"/><path d="M377.82,39.25c-.82,.1-1.64,.21-2.46,.21-7.74,0-8.15-1.9-8.15-7.64v-14.76h-4.15v-1.69c4.15,0,6.82-2.1,6.82-7.69h1.33v7.69h6.61v1.69h-6.61v16.19c0,3.9,1.74,4.51,4.56,4.51,.67,0,1.33-.15,2.05-.26v1.74Z" fill="#182b49"/><path d="M379,38.07c2.15,0,3.9-.46,3.9-3.79V8.76c0-3.02-2.41-3.18-3.9-3.33v-.87l7.89-1.23V21.62h.1c.72-1.9,3.02-6.77,8.15-6.77,5.38,0,5.89,2.97,5.89,7.74v11.69c0,3.33,1.74,3.79,3.9,3.79v.87h-11.79v-.87c2.1,0,3.9-.46,3.9-3.79v-10.56c0-4.41-.1-6.41-3.43-6.41-3.02,0-6.71,5.84-6.71,10.71v6.25c0,3.33,1.74,3.79,3.9,3.79v.87h-11.79v-.87Z" fill="#182b49"/></svg>